HIERARCHY
ROOT Hips
{
    OFFSET   0.000000   0.000000   0.000000
    CHANNELS 6 Xposition Yposition Zposition Zrotation Xrotation Yrotation
    JOINT Chest
    {
        OFFSET   0.000000   8.007230   0.000000
        CHANNELS 3 Zrotation Xrotation Yrotation
        JOINT Chest2
        {
            OFFSET   0.000000  22.077100   0.000000
            CHANNELS 3 Zrotation Xrotation Yrotation
            JOINT Neck
            {
                OFFSET   0.000000  23.254700   0.000000
                CHANNELS 3 Zrotation Xrotation Yrotation
                JOINT Head
                {
                    OFFSET   0.000010  14.370000   1.956610
                    CHANNELS 3 Zrotation Xrotation Yrotation
                    End Site
                    {
                        OFFSET   0.000000  19.566000   0.000000
                    }
                }
            }
            JOINT LeftCollar
            {
                OFFSET   3.911900  19.017000  -0.467063
                CHANNELS 3 Zrotation Xrotation Yrotation
                JOINT LeftShoulder
                {
                    OFFSET  10.383700   0.000000   0.000000
                    CHANNELS 3 Zrotation Xrotation Yrotation
                    JOINT LeftElbow
                    {
                        OFFSET  26.662100   0.001671   0.000522
                        CHANNELS 3 Zrotation Xrotation Yrotation
                        JOINT LeftWrist
                        {
                            OFFSET  28.869000   0.000037  -0.000114
                            CHANNELS 3 Zrotation Xrotation Yrotation
                            JOINT LeftFinger0
                            {
                                OFFSET   2.044650  -2.323450   3.252850
                                CHANNELS 3 Zrotation Xrotation Yrotation
                                JOINT LeftFinger01
                                {
                                    OFFSET   3.088140   0.000000   0.000000
                                    CHANNELS 3 Zrotation Xrotation Yrotation
                                    JOINT LeftFinger02
                                    {
                                        OFFSET   2.639460   0.000000   0.000000
                                        CHANNELS 3 Zrotation Xrotation Yrotation
                                        End Site
                                        {
                                            OFFSET   2.582190   0.000000   0.000000
                                        }
                                    }
                                }
                            }
                            JOINT LeftFinger1
                            {
                                OFFSET   8.364480   0.000000   3.252850
                                CHANNELS 3 Zrotation Xrotation Yrotation
                                JOINT LeftFinger11
                                {
                                    OFFSET   4.646930   0.000000   0.000000
                                    CHANNELS 3 Zrotation Xrotation Yrotation
                                    JOINT LeftFinger12
                                    {
                                        OFFSET   2.323470   0.000000   0.000000
                                        CHANNELS 3 Zrotation Xrotation Yrotation
                                        End Site
                                        {
                                            OFFSET   2.273050   0.000000   0.000000
                                        }
                                    }
                                }
                            }
                            JOINT LeftFinger2
                            {
                                OFFSET   8.364490   0.000016   1.078090
                                CHANNELS 3 Zrotation Xrotation Yrotation
                                JOINT LeftFinger21
                                {
                                    OFFSET   5.111620   0.000000   0.000000
                                    CHANNELS 3 Zrotation Xrotation Yrotation
                                    JOINT LeftFinger22
                                    {
                                        OFFSET   2.788150   0.000013   0.000000
                                        CHANNELS 3 Zrotation Xrotation Yrotation
                                        End Site
                                        {
                                            OFFSET   2.727660   0.000000   0.000000
                                        }
                                    }
                                }
                            }
                            JOINT LeftFinger3
                            {
                                OFFSET   7.899780   0.000016  -1.078090
                                CHANNELS 3 Zrotation Xrotation Yrotation
                                JOINT LeftFinger31
                                {
                                    OFFSET   4.646930   0.000000   0.000000
                                    CHANNELS 3 Zrotation Xrotation Yrotation
                                    JOINT LeftFinger32
                                    {
                                        OFFSET   2.323470   0.000000   0.000000
                                        CHANNELS 3 Zrotation Xrotation Yrotation
                                        End Site
                                        {
                                            OFFSET   2.273050   0.000000   0.000000
                                        }
                                    }
                                }
                            }
                            JOINT LeftFinger4
                            {
                                OFFSET   7.435080   0.000000  -3.252850
                                CHANNELS 3 Zrotation Xrotation Yrotation
                                JOINT LeftFinger41
                                {
                                    OFFSET   3.717550   0.000000   0.000000
                                    CHANNELS 3 Zrotation Xrotation Yrotation
                                    JOINT LeftFinger42
                                    {
                                        OFFSET   1.858760   0.000000   0.000000
                                        CHANNELS 3 Zrotation Xrotation Yrotation
                                        End Site
                                        {
                                            OFFSET   1.818440   0.000000   0.000000
                                        }
                                    }
                                }
                            }
                        }
                    }
                }
            }
            JOINT RightCollar
            {
                OFFSET  -3.911900  19.017000  -0.467064
                CHANNELS 3 Zrotation Xrotation Yrotation
                JOINT RightShoulder
                {
                    OFFSET -10.383700   0.000000   0.000000
                    CHANNELS 3 Zrotation Xrotation Yrotation
                    JOINT RightElbow
                    {
                        OFFSET -26.662100   0.001633   0.000260
                        CHANNELS 3 Zrotation Xrotation Yrotation
                        JOINT RightWrist
                        {
                            OFFSET -28.869000  -0.000045  -0.000080
                            CHANNELS 3 Zrotation Xrotation Yrotation
                            JOINT RightFinger0
                            {
                                OFFSET  -2.044660  -2.323490   3.252850
                                CHANNELS 3 Zrotation Xrotation Yrotation
                                JOINT RightFinger01
                                {
                                    OFFSET  -3.088140   0.000000   0.000000
                                    CHANNELS 3 Zrotation Xrotation Yrotation
                                    JOINT RightFinger02
                                    {
                                        OFFSET  -2.639450   0.000000   0.000000
                                        CHANNELS 3 Zrotation Xrotation Yrotation
                                        End Site
                                        {
                                            OFFSET  -2.582190   0.000000   0.000000
                                        }
                                    }
                                }
                            }
                            JOINT RightFinger1
                            {
                                OFFSET  -8.364480   0.000000   3.252850
                                CHANNELS 3 Zrotation Xrotation Yrotation
                                JOINT RightFinger11
                                {
                                    OFFSET  -4.646920   0.000000   0.000000
                                    CHANNELS 3 Zrotation Xrotation Yrotation
                                    JOINT RightFinger12
                                    {
                                        OFFSET  -2.323470   0.000000   0.000000
                                        CHANNELS 3 Zrotation Xrotation Yrotation
                                        End Site
                                        {
                                            OFFSET  -2.273050   0.000000   0.000000
                                        }
                                    }
                                }
                            }
                            JOINT RightFinger2
                            {
                                OFFSET  -8.364480   0.000000   1.078090
                                CHANNELS 3 Zrotation Xrotation Yrotation
                                JOINT RightFinger21
                                {
                                    OFFSET  -5.111610   0.000000   0.000000
                                    CHANNELS 3 Zrotation Xrotation Yrotation
                                    JOINT RightFinger22
                                    {
                                        OFFSET  -2.788160   0.000000   0.000000
                                        CHANNELS 3 Zrotation Xrotation Yrotation
                                        End Site
                                        {
                                            OFFSET  -2.727660   0.000000   0.000000
                                        }
                                    }
                                }
                            }
                            JOINT RightFinger3
                            {
                                OFFSET  -7.899780   0.000000  -1.078090
                                CHANNELS 3 Zrotation Xrotation Yrotation
                                JOINT RightFinger31
                                {
                                    OFFSET  -4.646930   0.000000   0.000000
                                    CHANNELS 3 Zrotation Xrotation Yrotation
                                    JOINT RightFinger32
                                    {
                                        OFFSET  -2.323470   0.000000   0.000000
                                        CHANNELS 3 Zrotation Xrotation Yrotation
                                        End Site
                                        {
                                            OFFSET  -2.273050   0.000000   0.000000
                                        }
                                    }
                                }
                            }
                            JOINT RightFinger4
                            {
                                OFFSET  -7.435090   0.000000  -3.252850
                                CHANNELS 3 Zrotation Xrotation Yrotation
                                JOINT RightFinger41
                                {
                                    OFFSET  -3.717550   0.000000   0.000000
                                    CHANNELS 3 Zrotation Xrotation Yrotation
                                    JOINT RightFinger42
                                    {
                                        OFFSET  -1.858760   0.000000   0.000000
                                        CHANNELS 3 Zrotation Xrotation Yrotation
                                        End Site
                                        {
                                            OFFSET  -1.818440   0.000000   0.000000
                                        }
                                    }
                                }
                            }
                        }
                    }
                }
            }
        }
    }
    JOINT LeftHip
    {
        OFFSET   9.782990   0.000000   0.000000
        CHANNELS 3 Zrotation Xrotation Yrotation
        JOINT LeftKnee
        {
            OFFSET  -0.000063 -41.789100   0.001657
            CHANNELS 3 Zrotation Xrotation Yrotation
            JOINT LeftAnkle
            {
                OFFSET   0.000078 -41.133200  -0.000113
                CHANNELS 3 Zrotation Xrotation Yrotation
                JOINT LeftToe
                {
                    OFFSET   0.000000  -6.358970  14.674500
                    CHANNELS 3 Zrotation Xrotation Yrotation
                    End Site
                    {
                        OFFSET   0.000000   0.000000   3.913200
                    }
                }
            }
        }
    }
    JOINT RightHip
    {
        OFFSET  -9.782990   0.000000   0.000000
        CHANNELS 3 Zrotation Xrotation Yrotation
        JOINT RightKnee
        {
            OFFSET   0.000053 -41.789200   0.000277
            CHANNELS 3 Zrotation Xrotation Yrotation
            JOINT RightAnkle
            {
                OFFSET   0.000030 -41.133200  -0.000150
                CHANNELS 3 Zrotation Xrotation Yrotation
                JOINT RightToe
                {
                    OFFSET   0.000000  -6.358960  14.674500
                    CHANNELS 3 Zrotation Xrotation Yrotation
                    End Site
                    {
                        OFFSET   0.000000   0.000000   3.913200
                    }
                }
            }
        }
    }
}
MOTION
Frames: 4
Frame Time:   0.016667
 -1.253710  89.582500  -4.911080  -2.774130 -12.412800  -2.099020   0.379750   7.062300   0.900634   0.654147  14.129600   1.774150   0.738671  -1.105080   0.007716   1.214870  -2.239910   2.858820  -5.569340  -2.295000  -1.227020 -72.351300  16.220300  -0.806254  -0.389270  -3.448090 -20.492000  13.793100  -7.532870   4.883450  37.899800  32.276100 -52.273100 -35.069700   0.008251   0.005834 -12.555600  -0.002921   0.002106 -41.818200  11.002500 -11.999400 -35.166300   0.006374   0.014936 -25.171700  -0.003206   0.015466 -36.582100  -0.919020   1.233620 -54.072700  -0.003937   0.001361 -36.176900  -0.007454   0.001998 -34.021800  -2.307220   3.408300 -50.820500  -0.003307  -0.001828 -33.906300  -0.008678  -0.000071 -42.723700  -2.796710   3.020310 -64.196300   0.000934  -0.003070 -42.754700   0.001845  -0.000371  12.357800  -0.675224   8.134820  67.496700  10.841300  -5.433920  -3.843940  -1.166310  19.287000 -15.807600  -7.337590  -0.190004 -37.226400  31.910400  62.500700  33.846100  -0.003617  -0.009396  11.923100  -0.001657  -0.001505  52.247100  11.085200   8.466900  43.421600  -0.001530   0.002956  32.566300  -0.001005   0.002477  50.807500  -0.219014  -0.160199  53.415200  -0.001003   0.010989  39.487500   0.004770   0.006812  46.894200  -2.467750  -2.254940  54.342900   0.003508  -0.004793  39.118100   0.004841   0.004456  57.226900  -7.697870  -4.931610  86.341300  -0.003034   0.007728  57.503300   0.003379   0.009128   2.490850  13.628100   4.439510   1.640050   0.047532   5.689560  -1.363140  -1.666150   4.731520  -0.000000   0.000000   0.000000   4.944370  10.956500   1.978850  -1.811710   5.125360  -7.171050  -1.492640  -4.595960  -5.849890   0.000000   0.000000  -0.000000
 -1.263200  89.582500  -4.896070  -2.778420 -12.412600  -2.116800   0.379580   7.073260   0.900437   0.653644  14.151600   1.773700   0.746631  -1.083690   0.007722   1.227950  -2.196500   2.853640  -5.570450  -2.316330  -1.232800 -72.332800  16.245000  -0.806010  -0.398539  -3.452060 -20.535600  13.797700  -7.491460   4.847550  37.917400  32.283200 -52.273600 -35.034100   0.008242   0.005825 -12.528000  -0.002919   0.002103 -42.220900  10.985500 -11.768400 -35.479100   0.004282   0.032030 -25.606800  -0.011005   0.025474 -36.633700  -0.897339   1.235920 -54.186100  -0.004030   0.001361 -36.230300  -0.008052   0.001999 -33.194400  -2.083140   3.196440 -51.289300  -0.003359  -0.001711 -33.928300  -0.008593   0.000078 -42.564900  -2.575770   2.810640 -63.942100  -0.000574   0.000085 -42.585400  -0.000414  -0.000009  12.384700  -0.708827   8.173220  67.540200  10.851100  -5.471010  -3.707270  -1.194450  19.295700 -16.076200  -7.360170  -0.041748 -37.673900  32.117600  62.599800  33.283700  -0.003715  -0.009413  11.641900  -0.001662  -0.001541  52.435400  11.020200   8.357710  43.563100  -0.004854   0.009403  32.672400  -0.001000   0.007514  51.925700  -0.036117  -0.049985  53.453900  -0.012889   0.011651  39.641000  -0.000431   0.012650  48.280100  -1.995270  -1.793770  54.079500  -0.011387  -0.004794  39.201500  -0.005328   0.009588  57.363900  -7.931580  -5.002660  86.540600   0.006393   0.034427  57.657000   0.021306   0.009127   2.495480  13.637300   4.436820   1.639060   0.046897   5.700680  -1.366290  -1.675660   4.740060   0.000000   0.000000   0.000000   4.935360  10.988500   1.967140  -1.785980   5.081940  -7.231170  -1.516480  -4.567710  -5.765920   0.000000   0.000000   0.000000
 -1.277480  89.582400  -4.871700  -2.786510 -12.412400  -2.146820   0.379218   7.096390   0.900264   0.652622  14.197800   1.773430   0.757506  -1.054080   0.007740   1.245720  -2.136390   2.848440  -5.575860  -2.367250  -1.267660 -72.304000  16.269800  -0.803688  -0.424105  -3.484680 -20.624600  13.867600  -7.394900   4.761930  37.968900  32.332700 -52.276700 -34.998500   0.008232   0.005814 -12.500500  -0.002917   0.002101 -43.982000  10.833700 -10.940100 -36.843800  -0.000166   0.049124 -26.990900  -0.019647   0.035483 -36.991900  -0.875654   1.252060 -54.369100  -0.004184   0.001361 -36.604400  -0.008651   0.002000 -32.365400  -1.858940   2.984690 -52.195100  -0.003470  -0.001546 -34.082000  -0.008509   0.000287 -42.404400  -2.354720   2.601090 -63.687800  -0.005606   0.005496 -42.416100  -0.005324   0.000354  12.433600  -0.778610   8.237170  67.620700  10.882300  -5.564670  -3.470060  -1.257600  19.353900 -16.879300  -7.517720   0.454096 -38.611200  32.705200  62.856000  32.373300  -0.003813  -0.009431  11.186700  -0.001676  -0.001576  53.495100  10.924500   7.970410  44.398100  -0.012910   0.015849  33.298600  -0.000995   0.015141  54.034200   0.146782   0.060227  53.724800  -0.024774   0.016290  40.364600  -0.005631   0.022161  51.055800  -1.522420  -1.333000  53.816100  -0.029148  -0.004796  39.785000  -0.015497   0.019130  58.280600  -8.337600  -5.076090  87.936000   0.023474   0.073783  58.596800   0.049854   0.009125   2.503840  13.658500   4.430540   1.637280   0.042456   5.720130  -1.371050  -1.689540   4.755050  -0.000000   0.000000  -0.000000   4.917400  11.049800   1.941380  -1.741130   4.999580  -7.330170  -1.551320  -4.522850  -5.618520   0.000000   0.000000   0.000000
 -1.287120  89.582500  -4.853650  -2.795030 -12.414400  -2.170490   0.379540   7.124140   0.903582   0.652471  14.253400   1.780140   0.761201  -1.042530   0.007773   1.251260  -2.113050   2.852150  -5.614470  -2.445140  -1.354680 -72.290200  16.257900  -0.764083  -0.490118  -3.629400 -20.719400  14.077600  -7.215030   4.658950  38.065600  32.495200 -52.279200 -35.003700   0.008231   0.005813 -12.507800  -0.002921   0.002102 -47.939500  10.372500  -9.224180 -39.916500  -0.006568   0.043421 -29.695400  -0.020632   0.027466 -40.989700  -1.474090   1.617220 -54.436500  -0.004337  -0.006433 -37.693800  -0.003907  -0.002677 -33.832100  -1.982210   3.043000 -53.347700  -0.003622  -0.001473 -35.043600  -0.009251   0.000376 -43.256700  -2.470450   2.658090 -64.975000  -0.017666   0.011371 -43.273400  -0.013674  -0.002312  12.484200  -0.867056   8.292910  67.702800  10.956600  -5.704880  -3.205970  -1.369990  19.464700 -18.239000  -8.057040   1.431360 -39.758900  33.758500  63.308100  31.661700  -0.003776  -0.006303  10.830800  -0.001700  -0.001194  55.821700  10.906100   7.292960  46.263400  -0.028515   0.011167  34.697500  -0.010508   0.019789  56.096100  -0.371940  -0.193854  55.542600  -0.024133   0.033169  41.894900   0.003511   0.031017  54.283200  -2.353680  -1.653900  54.974500  -0.032492   0.016581  41.195000  -0.007111   0.031635  60.405200  -8.717380  -4.885020  91.691800   0.044660   0.097714  60.642700   0.074409   0.001636   2.512260  13.690600   4.418780   1.635880   0.020546   5.738470  -1.373440  -1.693150   4.768840  -0.000000   0.000000   0.000000   4.896290  11.115900   1.908160  -1.699590   4.911020  -7.412770  -1.569680  -4.491860  -5.480470   0.000000   0.000000   0.000000
